<svg width="24" height="24" viewBox="0 0 24 24" fill="none" xmlns="http://www.w3.org/2000/svg">
<g clip-path="url(#clip0_249_2351)">
<path fillRule="evenodd" clipRule="evenodd" d="M12 0C12.5523 0 13 0.447715 13 1V8C13 8.55229 12.5523 9 12 9C11.4477 9 11 8.55229 11 8V1C11 0.447715 11.4477 0 12 0Z" fill="#F6F6F9"/>
<path fillRule="evenodd" clipRule="evenodd" d="M12 15C12.5523 15 13 15.4477 13 16V23C13 23.5523 12.5523 24 12 24C11.4477 24 11 23.5523 11 23V16C11 15.4477 11.4477 15 12 15Z" fill="#F6F6F9"/>
<path fillRule="evenodd" clipRule="evenodd" d="M15 12C15 11.4477 15.4477 11 16 11L23 11C23.5523 11 24 11.4477 24 12C24 12.5523 23.5523 13 23 13L16 13C15.4477 13 15 12.5523 15 12Z" fill="#F6F6F9"/>
<path fillRule="evenodd" clipRule="evenodd" d="M0 12C0 11.4477 0.447715 11 1 11H8C8.55229 11 9 11.4477 9 12C9 12.5523 8.55229 13 8 13H1C0.447715 13 0 12.5523 0 12Z" fill="#F6F6F9"/>
<path fillRule="evenodd" clipRule="evenodd" d="M17.7071 6.29289C18.0976 6.68342 18.0976 7.31658 17.7071 7.70711L15.7071 9.70711C15.3166 10.0976 14.6834 10.0976 14.2929 9.70711C13.9024 9.31658 13.9024 8.68342 14.2929 8.29289L16.2929 6.29289C16.6834 5.90237 17.3166 5.90237 17.7071 6.29289Z" fill="#F6F6F9"/>
<path fillRule="evenodd" clipRule="evenodd" d="M9.70709 14.2929C10.0976 14.6834 10.0976 15.3166 9.70709 15.7071L7.70709 17.7071C7.31657 18.0976 6.6834 18.0976 6.29288 17.7071C5.90236 17.3166 5.90236 16.6834 6.29288 16.2929L8.29288 14.2929C8.68341 13.9024 9.31657 13.9024 9.70709 14.2929Z" fill="#F6F6F9"/>
<path fillRule="evenodd" clipRule="evenodd" d="M14.2929 14.2929C14.6834 13.9024 15.3166 13.9024 15.7071 14.2929L17.7071 16.2929C18.0976 16.6834 18.0976 17.3166 17.7071 17.7071C17.3166 18.0976 16.6834 18.0976 16.2929 17.7071L14.2929 15.7071C13.9024 15.3166 13.9024 14.6834 14.2929 14.2929Z" fill="#F6F6F9"/>
<path fillRule="evenodd" clipRule="evenodd" d="M6.29289 6.29289C6.68342 5.90237 7.31658 5.90237 7.70711 6.29289L9.70711 8.29289C10.0976 8.68342 10.0976 9.31658 9.70711 9.70711C9.31658 10.0976 8.68342 10.0976 8.29289 9.70711L6.29289 7.70711C5.90237 7.31658 5.90237 6.68342 6.29289 6.29289Z" fill="#F6F6F9"/>
<path d="M14 12C14 13.1046 13.1046 14 12 14C10.8954 14 10 13.1046 10 12C10 10.8954 10.8954 10 12 10C13.1046 10 14 10.8954 14 12Z" fill="#F6F6F9"/>
</g>
<defs>
<clipPath id="clip0_249_2351">
<rect width="24" height="24" fill="white"/>
</clipPath>
</defs>
</svg>
